<?xml version="1.0" standalone="no"?>
<!DOCTYPE svg PUBLIC "-//W3C//DTD SVG 20010904//EN"
 "http://www.w3.org/TR/2001/REC-SVG-20010904/DTD/svg10.dtd">
<svg version="1.0" xmlns="http://www.w3.org/2000/svg"
 width="238.000000pt" height="238.000000pt" viewBox="0 0 238.000000 238.000000"
 preserveAspectRatio="xMidYMid meet">
<metadata>
Created by potrace 1.13, written by Peter Selinger 2001-2015
</metadata>
<g transform="translate(0.000000,238.000000) scale(0.100000,-0.100000)"
fill="#000000" stroke="none">
<path d="M1079 2181 l-53 -160 -35 -6 c-35 -7 -38 -4 -150 110 -91 92 -119
115 -135 111 -33 -8 -176 -96 -182 -111 -3 -7 13 -84 36 -170 l42 -158 -24
-23 -23 -22 -158 35 c-87 19 -164 32 -171 30 -15 -6 -106 -178 -106 -199 0 -8
54 -63 120 -123 66 -60 120 -114 120 -121 0 -48 -17 -60 -162 -113 -79 -28
-149 -56 -157 -60 -11 -7 -12 -27 -2 -122 7 -62 13 -115 15 -116 2 -2 68 -14
147 -28 79 -14 154 -27 165 -30 12 -3 27 -18 34 -35 12 -29 10 -33 -89 -166
l-102 -135 45 -62 c25 -34 58 -77 74 -94 l28 -33 156 66 156 66 27 -18 c29
-21 29 -16 9 -280 l-7 -81 84 -30 c154 -56 132 -64 239 92 90 132 93 135 129
135 l36 0 75 -141 c41 -78 81 -144 89 -147 16 -6 99 9 179 33 l52 16 0 102 c0
56 3 133 7 170 5 61 9 69 34 82 27 14 33 12 176 -66 l147 -81 83 85 83 86 -86
142 c-84 141 -91 159 -66 197 6 9 59 17 175 24 l167 11 9 31 c9 28 18 75 35
174 l6 33 -148 72 c-81 39 -150 76 -154 82 -4 5 -8 22 -8 36 0 23 20 42 133
124 72 54 133 99 134 100 5 3 -45 141 -66 183 l-22 43 -62 -7 c-34 -3 -108
-12 -165 -18 -99 -12 -103 -11 -122 9 -11 12 -20 27 -20 33 0 6 26 80 57 163
l56 152 -34 28 c-72 60 -159 112 -172 102 -6 -6 -61 -50 -122 -99 -136 -111
-127 -106 -162 -93 -29 10 -31 13 -64 171 -40 188 -30 178 -179 178 l-99 0
-52 -159z m247 -642 c76 -29 156 -105 196 -187 30 -60 33 -75 33 -157 0 -76
-4 -99 -27 -147 -33 -71 -102 -146 -165 -180 -265 -144 -583 77 -542 376 9 70
47 152 93 203 41 46 136 100 198 113 58 12 149 3 214 -21z"/>
</g>
</svg>
