<?xml version="1.0" standalone="no"?>
<!DOCTYPE svg PUBLIC "-//W3C//DTD SVG 20010904//EN"
 "http://www.w3.org/TR/2001/REC-SVG-20010904/DTD/svg10.dtd">
<svg version="1.0" xmlns="http://www.w3.org/2000/svg"
 width="40.000000pt" height="40.000000pt" viewBox="0 0 40.000000 40.000000"
 preserveAspectRatio="xMidYMid meet">
<metadata>
Created by potrace 1.13, written by Peter Selinger 2001-2015
</metadata>
<g transform="translate(0.000000,40.000000) scale(0.100000,-0.100000)"
fill="#000000" stroke="none">
<path d="M180 380 c0 -28 -27 -36 -50 -15 -25 23 -40 11 -37 -28 2 -30 0 -32
-30 -30 -39 3 -51 -12 -28 -37 21 -23 13 -50 -15 -50 -13 0 -20 -7 -20 -20 0
-13 7 -20 20 -20 28 0 36 -27 15 -50 -23 -25 -11 -40 28 -37 30 2 32 0 30 -30
-3 -39 12 -51 37 -28 23 21 50 13 50 -15 0 -13 7 -20 20 -20 13 0 20 7 20 20
0 28 27 36 50 15 25 -23 40 -11 37 28 -2 30 0 32 30 30 39 -3 51 12 28 37 -21
23 -13 50 15 50 13 0 20 7 20 20 0 13 -7 20 -20 20 -28 0 -36 27 -15 50 23 25
11 40 -28 37 -30 -2 -32 0 -30 30 3 39 -12 51 -37 28 -23 -21 -50 -13 -50 15
0 13 -7 20 -20 20 -13 0 -20 -7 -20 -20z m71 -75 c35 -19 69 -70 69 -105 0
-56 -65 -120 -122 -120 -53 0 -118 66 -118 120 0 54 65 120 118 120 13 0 36
-7 53 -15z"/>
</g>
</svg>
